<?xml version="1.0" standalone="no"?>
<!DOCTYPE svg PUBLIC "-//W3C//DTD SVG 20010904//EN"
 "http://www.w3.org/TR/2001/REC-SVG-20010904/DTD/svg10.dtd">
<svg version="1.0" xmlns="http://www.w3.org/2000/svg"
 width="1225.000000pt" height="1225.000000pt" viewBox="0 0 1225.000000 1225.000000"
 preserveAspectRatio="xMidYMid meet">
<metadata>
Created by potrace 1.11, written by Peter Selinger 2001-2013
</metadata>
<g transform="translate(0.000000,1225.000000) scale(0.100000,-0.100000)"
fill="#000000" stroke="none">
<path d="M1602 10183 c-306 -296 -748 -722 -982 -947 -234 -225 -463 -446
-509 -491 l-83 -82 429 -499 c236 -274 811 -944 1278 -1489 467 -544 1124
-1309 1459 -1700 1059 -1234 1595 -1858 2270 -2645 361 -421 660 -766 665
-768 4 -1 59 57 122 130 63 73 470 547 904 1053 434 506 1033 1204 1330 1550
298 347 845 984 1216 1416 371 432 1092 1273 1603 1868 l930 1083 -140 137
c-76 75 -249 243 -384 373 -135 130 -551 531 -925 892 l-680 655 -3973 1
-3973 0 -557 -537z m1159 -440 c-454 -458 -823 -1054 -1007 -1625 -15 -49 -31
-88 -35 -88 -9 0 -473 549 -477 564 -2 7 46 59 105 116 89 86 579 560 1083
1048 l105 101 171 1 171 0 -116 -117z m5919 95 c0 -22 -38 -116 -43 -107 -1 3
-29 33 -62 67 l-59 62 82 0 c78 0 82 -1 82 -22z m-2553 2 c726 -34 1271 -217
1606 -539 240 -231 352 -478 373 -821 l7 -110 1104 0 1103 0 0 456 c0 299 3
455 10 452 5 -1 165 -155 355 -341 l345 -339 -17 -23 c-10 -13 -129 -155 -264
-317 -135 -161 -378 -450 -539 -643 -161 -192 -304 -363 -318 -380 l-25 -30
-21 29 c-61 84 -154 192 -223 261 -426 423 -1140 687 -2103 780 -345 33 -524
37 -1270 30 -750 -7 -916 -3 -1215 31 -639 72 -1062 249 -1172 491 -23 50 -25
64 -21 142 9 147 64 264 178 380 276 281 889 459 1685 490 104 5 197 8 205 9
8 1 106 -3 217 -8z m-2737 -3374 c393 -56 702 -92 1180 -136 352 -33 821 -65
1595 -110 839 -49 1101 -69 1400 -106 446 -55 778 -153 855 -251 50 -63 4
-203 -95 -290 -171 -151 -417 -231 -840 -273 -147 -15 -892 -24 -1188 -15
l-236 7 -43 57 c-214 283 -621 490 -1076 547 -428 53 -881 -35 -1162 -225 -35
-24 -47 -28 -56 -18 -57 62 -724 857 -724 862 0 4 17 5 38 2 20 -3 179 -26
352 -51z m2089 -2356 c320 -46 442 -54 836 -54 389 -1 507 7 759 50 48 8 91
13 94 10 6 -6 42 36 -562 -666 -258 -300 -472 -545 -475 -545 -7 1 -1 -5 -622
717 -264 307 -479 559 -479 561 0 2 71 -9 157 -25 86 -15 218 -37 292 -48z"/>
</g>
</svg>
